<svg width="40" height="40" viewBox="0 0 40 40" fill="none" xmlns="http://www.w3.org/2000/svg">
<path d="M19.999 3.3335C12.8498 3.3335 6.76984 7.8435 4.40234 14.1668H35.5948C33.2282 7.8435 27.1482 3.3335 19.999 3.3335Z" fill="#E0E1E2"/>
<path d="M36.6654 20.0001C36.6654 17.9442 36.2754 15.9851 35.5954 14.1667H4.40203C3.72203 15.9851 3.33203 17.9442 3.33203 20.0001C3.33203 22.0559 3.72203 24.0151 4.40203 25.8334H35.5945C36.2754 24.0151 36.6654 22.0559 36.6654 20.0001Z" fill="#3F51B5"/>
<path d="M35.5957 25.8335H4.40234C6.76984 32.1568 12.8498 36.6668 19.999 36.6668C27.1482 36.6668 33.2282 32.1568 35.5957 25.8335Z" fill="#FF3D00"/>
</svg>
