<svg width="20" height="14" viewBox="0 0 20 14" fill="none" xmlns="http://www.w3.org/2000/svg">
<path d="M17.9526 6.20411C18.206 6.55938 18.3327 6.73701 18.3327 6.99996C18.3327 7.2629 18.206 7.44054 17.9527 7.7958C16.8143 9.39209 13.907 12.8333 9.99935 12.8333C6.09167 12.8333 3.18443 9.39209 2.04605 7.79581C1.79269 7.44054 1.66602 7.2629 1.66602 6.99996C1.66602 6.73701 1.79269 6.55938 2.04605 6.20411C3.18443 4.60783 6.09166 1.16663 9.99935 1.16663C13.907 1.16663 16.8143 4.60783 17.9526 6.20411Z" stroke="#3376C7" stroke-width="1.5"/>
<path d="M12.5 7C12.5 5.61929 11.3807 4.5 10 4.5C8.61929 4.5 7.5 5.61929 7.5 7C7.5 8.38071 8.61929 9.5 10 9.5C11.3807 9.5 12.5 8.38071 12.5 7Z" stroke="#3376C7" stroke-width="1.5"/>
</svg>
